<?xml version="1.0" standalone="no"?>
<!DOCTYPE svg PUBLIC "-//W3C//DTD SVG 20010904//EN"
 "http://www.w3.org/TR/2001/REC-SVG-20010904/DTD/svg10.dtd">
<svg version="1.0" xmlns="http://www.w3.org/2000/svg"
 width="400.000000pt" height="400.000000pt" viewBox="0 0 400.000000 400.000000"
 preserveAspectRatio="xMidYMid meet">
<metadata>
Created by potrace 1.14, written by Peter Selinger 2001-2017
</metadata>
<g transform="translate(0.000000,400.000000) scale(0.100000,-0.100000)"
fill="#000000" stroke="none">
<path d="M2406 3328 c-31 -46 -70 -103 -87 -128 -17 -25 -66 -94 -107 -155
-131 -192 -184 -265 -189 -265 -6 0 -16 11 -88 95 -33 38 -76 88 -97 110 -20
22 -49 55 -66 74 l-29 34 -96 -139 c-53 -77 -126 -182 -162 -234 -130 -186
-321 -461 -375 -540 -30 -45 -78 -113 -106 -153 -44 -63 -245 -353 -789 -1137
-70 -102 -148 -213 -172 -247 l-44 -63 415 0 414 0 143 208 c79 114 172 250
207 302 36 52 115 167 175 255 61 88 138 201 172 250 34 50 90 131 124 180 34
50 90 132 124 182 34 51 67 92 72 92 6 0 27 -21 48 -47 20 -26 54 -66 75 -89
l38 -43 70 100 c38 56 76 111 84 124 21 32 50 75 81 118 l26 37 38 -72 c21
-40 86 -162 145 -272 59 -110 129 -240 155 -290 26 -49 62 -117 80 -150 18
-33 51 -94 72 -135 48 -91 120 -226 181 -340 53 -97 137 -256 184 -348 l33
-62 422 0 422 0 -45 88 c-26 48 -49 92 -54 97 -4 6 -35 64 -70 130 -34 66 -66
125 -70 130 -4 6 -31 55 -60 110 -29 55 -116 217 -193 360 -77 143 -154 287
-172 320 -18 33 -52 96 -75 140 -40 75 -66 122 -130 240 -15 28 -45 84 -67
125 -35 65 -183 340 -283 525 -18 33 -50 94 -72 135 -23 41 -55 102 -73 135
-18 33 -51 94 -73 135 -22 41 -50 94 -63 118 -12 23 -26 42 -30 42 -4 0 -32
-37 -63 -82z"/>
</g>
</svg>
