<svg version="1.1" viewBox="0 0 210 297" xmlns="http://www.w3.org/2000/svg">
 <g>
  <g style="fill:none;stroke-width:2.9216;stroke:#000000">
   <path d="m77.629 120.23 7.931 4.5268v12.991l-7.931-5.8582z" points="85.559705,124.75857 85.559705,137.74932 77.628659,131.89113 77.628659,120.2318 " style="fill:none;stroke-linejoin:round;stroke:#000000"/>
   <path d="m66.249 123.44v12.603l11.379-4.1535v-11.659z" points="66.249415,136.04463 77.628659,131.89113 77.628659,120.2318 66.249415,123.44131 " style="fill:none;stroke-linejoin:round;stroke:#000000"/>
   <path d="m66.249 136.04 7.2354 6.9091 12.075-5.2044-7.931-5.8582z" points="73.484843,142.9537 85.559705,137.74932 77.628659,131.89113 66.249415,136.04463 " style="fill:none;stroke-linejoin:round;stroke:#000000"/>
   <path d="m66.249 123.44 7.2354 5.3388 12.075-4.0216-7.931-4.5268z" points="73.484843,128.78013 85.559705,124.75857 77.628659,120.2318 66.249415,123.44131 " style="fill:none;stroke-linejoin:round;stroke:#000000"/>
   <path d="m73.485 128.78v14.174l12.075-5.2044v-12.991z" points="73.484843,142.9537 85.559705,137.74932 85.559705,124.75857 73.484843,128.78013 " style="fill:none;stroke-linejoin:round;stroke:#000000"/>
   <path d="m66.249 123.44 7.2354 5.3388v14.174l-7.2354-6.9091z" points="73.484843,128.78013 73.484843,142.9537 66.249415,136.04463 66.249415,123.44131 " style="fill:none;stroke-linejoin:round;stroke:#000000"/>
  </g>
  <rect x="45.247" y="107.65" width="60.474" height="49.169" style="fill:none"/>
 </g>
</svg>
