<svg version="1.1" viewBox="0 0 325.43 139.44" xml:space="preserve" xmlns="http://www.w3.org/2000/svg"><defs><mask id="mask-powermask-path-effect517" maskUnits="userSpaceOnUse"><path id="mask-powermask-path-effect517_box" d="m22.311 79.265h155.54v106.65h-155.54z" style="fill:#ffffff"/><g transform="matrix(.582 0 0 .58821 41.539 76.145)" style="fill:#000000"><path transform="scale(.26458)" d="m88.107 698.87c267.17-369.5-15.399 21.239 252.94-349.87 40.873 44.648 40.676 44.479 40.676 44.479s.34332-.21798 64.802-90.114c222.41 396.4-.6529-1.1982 221.9 395.48-600.62.0678 13.299.0578-580.3.0303z" fill="#2a7fff" stroke-width="6.7622" style="fill:#000000"/></g></mask></defs><rect width="325.43" height="139.44" style="fill:#ffffff;stroke-width:.6412"/><g transform="matrix(.91572 0 0 .95557 -5.8037 -57.599)" mask="url(#mask-powermask-path-effect517)"><path transform="scale(.26458)" d="m88.107 698.87c267.17-369.5-15.399 21.239 252.94-349.87 40.873 44.648 40.676 44.479 40.676 44.479s.34332-.21798 64.802-90.114c222.41 396.4-.6529-1.1982 221.9 395.48-600.62.0678 13.299.0578-580.3.0303z" fill="#2a7fff" stroke-width="6.7622"/></g><text x="232.63361" y="118.84732" style="fill:#333333;font-family:Montserrat;font-size:50.8px;font-weight:bold;stroke-width:.903;text-align:center;text-anchor:middle" xml:space="preserve"><tspan x="232.63361" y="118.84732" style="stroke-width:.903">Panel</tspan></text></svg>
