<?xml version="1.0" encoding="UTF-8" standalone="no"?>
<svg
   version="1.1"
   viewBox="0 0 288.5908 100.15418"
   xml:space="preserve"
   id="svg20"
   sodipodi:docname="logo.svg"
   width="288.59079"
   height="100.15418"
   inkscape:version="1.2.1 (9c6d41e410, 2022-07-14)"
   xmlns:inkscape="http://www.inkscape.org/namespaces/inkscape"
   xmlns:sodipodi="http://sodipodi.sourceforge.net/DTD/sodipodi-0.dtd"
   xmlns="http://www.w3.org/2000/svg"
   xmlns:svg="http://www.w3.org/2000/svg"><sodipodi:namedview
     id="namedview22"
     pagecolor="#ffffff"
     bordercolor="#000000"
     borderopacity="0.25"
     inkscape:showpageshadow="2"
     inkscape:pageopacity="0.0"
     inkscape:pagecheckerboard="0"
     inkscape:deskcolor="#d1d1d1"
     showgrid="false"
     inkscape:zoom="1.4232091"
     inkscape:cx="214.65573"
     inkscape:cy="71.317698"
     inkscape:window-width="1920"
     inkscape:window-height="991"
     inkscape:window-x="-9"
     inkscape:window-y="-9"
     inkscape:window-maximized="1"
     inkscape:current-layer="svg20" /><defs
     id="defs8" /><path
     id="path12"
     clip-path="none"
     mask="none"
     style="fill:#2a7fff;fill-opacity:1;stroke-width:0.247497"
     d="M 86.837891,7.0790919e-5 C 71.220779,22.727983 71.13672,22.783273 71.13672,22.783273 c 0,0 0.04923,0.04201 -9.853516,-11.246095 C -3.7302268,105.36261 64.730204,6.5736194 0,99.992256 l 0.00390557,0.002 c 29.78047243,0.0015 19.21140243,-0.0029 29.11328243,-0.002 37.664682,-54.937679 -2.172126,3.159334 35.664062,-52.027343 5.7634,6.639779 5.736327,6.615234 5.736327,6.615234 0,0 0.04756,-0.03356 9.13672,-13.402344 31.359423,58.946317 -0.08228,-0.161658 31.289063,58.810547 10.01717,-0.002 -1.03844,0.0018 29.65625,-0.002 C 86.679279,-0.30362478 140.7236,100.21961 86.837891,0 Z" /><g
     id="g472"
     transform="translate(-15.542969,-19.09954)"><g
       transform="matrix(0.53294904,0,0,0.56207583,32.234393,15.162878)"
       style="fill:#000000"
       id="g470" /></g><text
     x="217.09064"
     y="99.74778"
     style="font-weight:bold;font-size:50.8px;font-family:Montserrat;text-align:center;text-anchor:middle;fill:#333333;stroke-width:0.903"
     xml:space="preserve"
     id="text18"><tspan
       x="217.09064"
       y="99.74778"
       style="stroke-width:0.903"
       id="tspan16">Panel</tspan></text></svg>
