<?xml version="1.0" encoding="UTF-8" standalone="no"?>
<!-- Created with Inkscape (http://www.inkscape.org/) -->

<svg
   width="91.141563mm"
   height="42.025356mm"
   version="1.1"
   viewBox="0 0 91.141565 42.025355"
   xml:space="preserve"
   id="svg136"
   sodipodi:docname="logo.svg"
   inkscape:version="1.2.1 (9c6d41e410, 2022-07-14)"
   xmlns:inkscape="http://www.inkscape.org/namespaces/inkscape"
   xmlns:sodipodi="http://sodipodi.sourceforge.net/DTD/sodipodi-0.dtd"
   xmlns="http://www.w3.org/2000/svg"
   xmlns:svg="http://www.w3.org/2000/svg"><defs
     id="defs140" /><sodipodi:namedview
     id="namedview138"
     pagecolor="#ffffff"
     bordercolor="#000000"
     borderopacity="0.25"
     inkscape:showpageshadow="2"
     inkscape:pageopacity="0.0"
     inkscape:pagecheckerboard="0"
     inkscape:deskcolor="#d1d1d1"
     inkscape:document-units="mm"
     showgrid="false"
     inkscape:zoom="0.76618788"
     inkscape:cx="171.62892"
     inkscape:cy="67.21589"
     inkscape:window-width="1920"
     inkscape:window-height="1051"
     inkscape:window-x="-9"
     inkscape:window-y="-9"
     inkscape:window-maximized="1"
     inkscape:current-layer="svg136" /><g
     transform="matrix(0.37030084,0,0,0.36928935,-8.6292868,-29.629133)"
     id="g134"><path
       transform="scale(0.26458)"
       d="m 88.107,698.87 c 1.995,-3.2594 41.575,-58.5 42.395,-59.169 68.177,-91.793 148.2,-207.62 210.54,-290.7 0.29256,-0.33199 3.1004,2.3846 6.2397,6.037 3.1392,3.6523 8.4464,9.7518 11.794,13.554 3.3473,3.8026 9.4332,10.941 13.524,15.862 4.0911,4.9216 8.1943,8.9834 9.1182,9.0263 0.92387,0.0428 4.5754,-4.3345 8.1146,-9.7273 3.5392,-5.3928 6.7467,-10.109 7.128,-10.481 0.38121,-0.37192 11.336,-16.615 24.344,-36.095 18.063,-27.051 24.02,-35.039 25.215,-33.811 0.86052,0.88422 6.9985,11.345 13.64,23.247 59.275,104.95 120.05,215.35 179.55,320.53 13.404,23.69 28.148,50.243 28.708,51.703 0.52678,1.3728 -11.412,1.7177 -59.454,1.7177 h -60.113 l -9.8883,-17.244 c -32.359,-57.14 -68.769,-118.52 -87.199,-151.81 -18.43,-33.29 -27.042,-45.983 -27.927,-45.983 -0.80489,0 -3.3599,2.8625 -9.0538,10.143 -0.58172,0.74384 -7.3912,10.329 -15.132,21.301 -7.741,10.972 -14.487,19.948 -14.992,19.948 -0.5046,0 -5.4014,-4.9682 -10.882,-11.04 -13.325,-14.765 -13.183,-14.633 -15.104,-13.896 -0.92428,0.35467 -2.393,1.7858 -3.2639,3.1802 -0.87086,1.3944 -7.8566,10.708 -15.524,20.697 -36.847,48.442 -65.006,85.085 -99.126,130.22 -6.7462,8.9261 -15.5,20.337 -19.452,25.358 l -7.1859,9.1289 h -63.521 c -50.467,0 -63.308,-0.34741 -62.486,-1.6905 z"
       fill="#2a7fff"
       stroke-width="6.7622"
       id="path132" /></g><text
     xml:space="preserve"
     style="font-weight:bold;font-size:25.4px;font-family:sans-serif;-inkscape-font-specification:'sans-serif Bold';text-align:end;text-anchor:end;fill:none;fill-opacity:1;stroke:#2a7fff;stroke-width:1.32292;stroke-opacity:1"
     x="91.74514"
     y="38.970242"
     id="text300"><tspan
       sodipodi:role="line"
       id="tspan298"
       style="font-style:normal;font-variant:normal;font-weight:900;font-stretch:normal;font-family:'Segoe UI';-inkscape-font-specification:'Segoe UI Heavy';fill:none;fill-opacity:1;stroke:#2a7fff;stroke-width:1.32292;stroke-opacity:1"
       x="91.74514"
       y="38.970242">Qu</tspan></text></svg>
