<?xml version="1.0" encoding="UTF-8" standalone="no"?>
<svg
   version="1.1"
   viewBox="0 0 325.43 139.44"
   xml:space="preserve"
   id="svg20"
   sodipodi:docname="logo.svg"
   inkscape:version="1.2.1 (9c6d41e410, 2022-07-14)"
   xmlns:inkscape="http://www.inkscape.org/namespaces/inkscape"
   xmlns:sodipodi="http://sodipodi.sourceforge.net/DTD/sodipodi-0.dtd"
   xmlns="http://www.w3.org/2000/svg"
   xmlns:svg="http://www.w3.org/2000/svg"><sodipodi:namedview
     id="namedview22"
     pagecolor="#ffffff"
     bordercolor="#000000"
     borderopacity="0.25"
     inkscape:showpageshadow="2"
     inkscape:pageopacity="0.0"
     inkscape:pagecheckerboard="0"
     inkscape:deskcolor="#d1d1d1"
     showgrid="false"
     inkscape:zoom="2.0403774"
     inkscape:cx="230.83965"
     inkscape:cy="56.607175"
     inkscape:window-width="1920"
     inkscape:window-height="991"
     inkscape:window-x="-9"
     inkscape:window-y="-9"
     inkscape:window-maximized="1"
     inkscape:current-layer="svg20" /><defs
     id="defs8" /><g
     transform="matrix(.91572 0 0 .95557 -5.8037 -57.599)"
     mask="none"
     id="g14"
     clip-path="none"><path
       id="path12"
       d="M 446.52478 303.36674 C 382.06617 393.26267 381.71921 393.48137 381.71921 393.48137 C 381.71921 393.48137 381.92242 393.64754 341.04946 348.99958 C 72.710729 720.10821 355.27673 329.36717 88.106997 698.8668 L 88.12312 698.87453 C 211.04009 698.88022 167.41694 698.86314 208.28631 698.8668 C 363.74486 481.57127 199.321 711.36296 355.48742 493.08255 C 379.27549 519.34492 379.16375 519.24785 379.16375 519.24785 C 379.16375 519.24785 379.36005 519.11512 416.87496 466.23743 C 546.30897 699.38836 416.53537 465.59802 546.01855 698.85135 C 587.36376 698.84341 541.73246 698.85793 668.42281 698.84363 C 445.87013 302.16582 668.93456 699.76635 446.52478 303.36674 z "
       transform="scale(.26458)"
       style="fill:#2a7fff;fill-opacity:1" /></g><g
     transform="matrix(0.53294904,0,0,0.56207583,32.234393,15.162878)"
     style="fill:#000000"
     id="g5" /><g
     aria-label="Panel"
     id="text18"
     style="font-weight:bold;font-size:50.8px;font-family:Montserrat;text-align:center;text-anchor:middle;fill:#333333;stroke-width:0.903"><path
       id="path391"
       d="M 296.20896,118.84732 V 81.153721 h 7.9248 v 37.693599 z m -18.49122,0.4064 q -4.6736,0 -8.2296,-1.8288 -3.5052,-1.8288 -5.4356,-4.9784 -1.9304,-3.2004 -1.9304,-7.2644 0,-4.1148 1.8796,-7.264399 1.9304,-3.2004 5.2324,-4.9784 3.302,-1.8288 7.4676,-1.8288 4.0132,0 7.2136,1.7272 3.2512,1.6764 5.1308,4.8768 1.8796,3.149599 1.8796,7.569199 0,0.4572 -0.0508,1.0668 -0.0508,0.5588 -0.1016,1.0668 h -22.1996 v -4.6228 h 18.034 l -3.048,1.3716 q 0,-2.1336 -0.8636,-3.7084 -0.8636,-1.574799 -2.3876,-2.438399 -1.524,-0.9144 -3.556,-0.9144 -2.032,0 -3.6068,0.9144 -1.524,0.8636 -2.3876,2.489199 -0.8636,1.5748 -0.8636,3.7592 v 1.2192 q 0,2.2352 0.9652,3.9624 1.016,1.6764 2.794,2.5908 1.8288,0.8636 4.2672,0.8636 2.1844,0 3.81,-0.6604 1.6764,-0.6604 3.048,-1.9812 l 4.2164,4.572 q -1.8796,2.1336 -4.7244,3.302 -2.8448,1.1176 -6.5532,1.1176 z M 245.4615,91.110521 q 3.2512,0 5.7912,1.3208 2.5908,1.27 4.064,3.9624 1.4732,2.6416 1.4732,6.807199 v 15.6464 h -7.9248 v -14.4272 q 0,-3.302 -1.4732,-4.876799 -1.4224,-1.5748 -4.064,-1.5748 -1.8796,0 -3.4036,0.8128 -1.4732,0.762 -2.3368,2.387599 -0.8128,1.6256 -0.8128,4.1656 v 13.5128 h -7.9248 V 91.516921 h 7.5692 v 7.5692 l -1.4224,-2.286 q 1.4732,-2.7432 4.2164,-4.2164 2.7432,-1.4732 6.2484,-1.4732 z m -31.19123,27.736799 v -5.334 l -0.508,-1.1684 v -9.5504 q 0,-2.54 -1.5748,-3.962399 -1.524,-1.4224 -4.7244,-1.4224 -2.1844,0 -4.318,0.7112 -2.0828,0.6604 -3.556,1.8288 l -2.8448,-5.5372 q 2.2352,-1.5748 5.3848,-2.4384 3.1496,-0.8636 6.4008,-0.8636 6.2484,0 9.7028,2.9464 3.4544,2.9464 3.4544,9.194799 v 15.5956 z m -8.3312,0.4064 q -3.2004,0 -5.4864,-1.0668 -2.286,-1.1176 -3.5052,-2.9972 -1.2192,-1.8796 -1.2192,-4.2164 0,-2.4384 1.1684,-4.2672 1.2192,-1.8288 3.81,-2.8448 2.5908,-1.0668 6.7564,-1.0668 h 7.2644 v 4.6228 h -6.4008 q -2.794,0 -3.8608,0.9144 -1.016,0.9144 -1.016,2.286 0,1.524 1.1684,2.4384 1.2192,0.8636 3.302,0.8636 1.9812,0 3.556,-0.9144 1.5748,-0.9652 2.286,-2.794 l 1.2192,3.6576 q -0.8636,2.6416 -3.1496,4.0132 -2.286,1.3716 -5.8928,1.3716 z m -44.29765,-0.4064 V 83.287321 h 15.3924 q 4.7752,0 8.2296,1.5748 3.4544,1.524 5.334,4.4196 1.8796,2.8956 1.8796,6.9088 0,3.962399 -1.8796,6.857999 -1.8796,2.8956 -5.334,4.4704 -3.4544,1.524 -8.2296,1.524 h -10.8204 l 3.6576,-3.7084 v 13.5128 z m 8.2296,-12.5984 -3.6576,-3.9116 h 10.3632 q 3.81,0 5.6896,-1.6256 1.8796,-1.625599 1.8796,-4.521199 0,-2.9464 -1.8796,-4.572 -1.8796,-1.6256 -5.6896,-1.6256 h -10.3632 l 3.6576,-3.9116 z" /></g></svg>
