<?xml version="1.0" encoding="UTF-8" standalone="no"?>
<svg
   version="1.1"
   viewBox="0 0 325.43 139.44"
   xml:space="preserve"
   id="svg20"
   sodipodi:docname="logo.svg"
   inkscape:version="1.2.1 (9c6d41e410, 2022-07-14)"
   xmlns:inkscape="http://www.inkscape.org/namespaces/inkscape"
   xmlns:sodipodi="http://sodipodi.sourceforge.net/DTD/sodipodi-0.dtd"
   xmlns="http://www.w3.org/2000/svg"
   xmlns:svg="http://www.w3.org/2000/svg"><sodipodi:namedview
     id="namedview22"
     pagecolor="#ffffff"
     bordercolor="#000000"
     borderopacity="0.25"
     inkscape:showpageshadow="2"
     inkscape:pageopacity="0.0"
     inkscape:pagecheckerboard="0"
     inkscape:deskcolor="#d1d1d1"
     showgrid="false"
     inkscape:zoom="1.4142136"
     inkscape:cx="234.4059"
     inkscape:cy="185.61553"
     inkscape:window-width="1920"
     inkscape:window-height="1051"
     inkscape:window-x="-9"
     inkscape:window-y="-9"
     inkscape:window-maximized="1"
     inkscape:current-layer="layer1" /><defs
     id="defs8"><inkscape:path-effect
       effect="powerclip"
       id="path-effect1041"
       is_visible="true"
       lpeversion="1"
       inverse="true"
       flatten="false"
       hide_clip="false"
       message="Use fill-rule evenodd on &lt;b&gt;fill and stroke&lt;/b&gt; dialog if no flatten result after convert clip to paths." /><filter
       id="mask-powermask-path-effect950_inverse"
       inkscape:label="filtermask-powermask-path-effect950"
       style="color-interpolation-filters:sRGB"
       height="100"
       width="100"
       x="-50"
       y="-50"><feColorMatrix
         id="mask-powermask-path-effect950_primitive1"
         values="1"
         type="saturate"
         result="fbSourceGraphic" /><feColorMatrix
         id="mask-powermask-path-effect950_primitive2"
         values="-1 0 0 0 1 0 -1 0 0 1 0 0 -1 0 1 0 0 0 1 0 "
         in="fbSourceGraphic" /></filter><clipPath
       clipPathUnits="userSpaceOnUse"
       id="clipPath1037"><path
         d="m 55.106206,189.34877 c 41.140322,-61.65247 -2.371224,3.54381 38.949108,-58.37713 6.293856,7.44969 6.263516,7.42149 6.263516,7.42149 0,0 0.0529,-0.0364 9.97857,-15.03586 34.24793,66.14083 -0.10053,-0.19992 34.1694,65.98733 -92.486809,0.0113 2.04786,0.009 -89.357822,0.005 z"
         fill="#2a7fff"
         stroke-width="1.08392"
         style="display:none;fill:#000000"
         id="path1039" /><path
         id="lpe_path-effect1041"
         style="fill:#000000"
         class="powerclip"
         d="M 18.31135,75.264312 H 181.85189 V 189.91398 H 18.31135 Z m 36.794856,114.084458 0.0028,8.3e-4 c 91.405684,0.004 -3.128987,0.006 89.357824,-0.005 -34.26993,-66.18725 0.0785,0.1535 -34.1694,-65.98733 -9.92567,14.99946 -9.97857,15.03586 -9.97857,15.03586 0,0 0.0303,0.0282 -6.263518,-7.42149 -41.320332,61.92094 2.191214,-3.27534 -38.949108,58.37713 z" /></clipPath></defs><g
     inkscape:groupmode="layer"
     id="layer1"
     inkscape:label="Layer 1"
     style="display:inline"><g
       aria-label="Panel"
       id="text18"
       style="font-weight:bold;font-size:50.8px;font-family:Montserrat;text-align:center;text-anchor:middle;fill:#333333;stroke-width:0.903"><path
         d="M 161.64142,118.84732 V 83.287321 h 15.3924 q 4.7752,0 8.2296,1.5748 3.4544,1.524 5.334,4.4196 1.8796,2.8956 1.8796,6.9088 0,3.962399 -1.8796,6.857999 -1.8796,2.8956 -5.334,4.4704 -3.4544,1.524 -8.2296,1.524 h -10.8204 l 3.6576,-3.7084 v 13.5128 z m 8.2296,-12.5984 -3.6576,-3.9116 h 10.3632 q 3.81,0 5.6896,-1.6256 1.8796,-1.625599 1.8796,-4.521199 0,-2.9464 -1.8796,-4.572 -1.8796,-1.6256 -5.6896,-1.6256 h -10.3632 l 3.6576,-3.9116 z"
         id="path305" /><path
         d="m 214.27027,118.84732 v -5.334 l -0.508,-1.1684 v -9.5504 q 0,-2.54 -1.5748,-3.962399 -1.524,-1.4224 -4.7244,-1.4224 -2.1844,0 -4.318,0.7112 -2.0828,0.6604 -3.556,1.8288 l -2.8448,-5.5372 q 2.2352,-1.5748 5.3848,-2.4384 3.1496,-0.8636 6.4008,-0.8636 6.2484,0 9.7028,2.9464 3.4544,2.9464 3.4544,9.194799 v 15.5956 z m -8.3312,0.4064 q -3.2004,0 -5.4864,-1.0668 -2.286,-1.1176 -3.5052,-2.9972 -1.2192,-1.8796 -1.2192,-4.2164 0,-2.4384 1.1684,-4.2672 1.2192,-1.8288 3.81,-2.8448 2.5908,-1.0668 6.7564,-1.0668 h 7.2644 v 4.6228 h -6.4008 q -2.794,0 -3.8608,0.9144 -1.016,0.9144 -1.016,2.286 0,1.524 1.1684,2.4384 1.2192,0.8636 3.302,0.8636 1.9812,0 3.556,-0.9144 1.5748,-0.9652 2.286,-2.794 l 1.2192,3.6576 q -0.8636,2.6416 -3.1496,4.0132 -2.286,1.3716 -5.8928,1.3716 z"
         id="path307" /><path
         d="m 245.4615,91.110521 q 3.2512,0 5.7912,1.3208 2.5908,1.27 4.064,3.9624 1.4732,2.6416 1.4732,6.807199 v 15.6464 h -7.9248 v -14.4272 q 0,-3.302 -1.4732,-4.876799 -1.4224,-1.5748 -4.064,-1.5748 -1.8796,0 -3.4036,0.8128 -1.4732,0.762 -2.3368,2.387599 -0.8128,1.6256 -0.8128,4.1656 v 13.5128 h -7.9248 V 91.516921 h 7.5692 v 7.5692 l -1.4224,-2.286 q 1.4732,-2.7432 4.2164,-4.2164 2.7432,-1.4732 6.2484,-1.4732 z"
         id="path309" /><path
         d="m 277.71774,119.25372 q -4.6736,0 -8.2296,-1.8288 -3.5052,-1.8288 -5.4356,-4.9784 -1.9304,-3.2004 -1.9304,-7.2644 0,-4.1148 1.8796,-7.264399 1.9304,-3.2004 5.2324,-4.9784 3.302,-1.8288 7.4676,-1.8288 4.0132,0 7.2136,1.7272 3.2512,1.6764 5.1308,4.8768 1.8796,3.149599 1.8796,7.569199 0,0.4572 -0.0508,1.0668 -0.0508,0.5588 -0.1016,1.0668 h -22.1996 v -4.6228 h 18.034 l -3.048,1.3716 q 0,-2.1336 -0.8636,-3.7084 -0.8636,-1.574799 -2.3876,-2.438399 -1.524,-0.9144 -3.556,-0.9144 -2.032,0 -3.6068,0.9144 -1.524,0.8636 -2.3876,2.489199 -0.8636,1.5748 -0.8636,3.7592 v 1.2192 q 0,2.2352 0.9652,3.9624 1.016,1.6764 2.794,2.5908 1.8288,0.8636 4.2672,0.8636 2.1844,0 3.81,-0.6604 1.6764,-0.6604 3.048,-1.9812 l 4.2164,4.572 q -1.8796,2.1336 -4.7244,3.302 -2.8448,1.1176 -6.5532,1.1176 z"
         id="path311" /><path
         d="M 296.20896,118.84732 V 81.153721 h 7.9248 v 37.693599 z"
         id="path313" /></g><g
       transform="matrix(0.91572,0,0,0.95557,-5.8037,-57.599)"
       mask="none"
       id="g14"
       clip-path="url(#clipPath1037)"
       inkscape:path-effect="#path-effect1041"><path
         transform="scale(0.26458)"
         d="m 88.107,698.87 c 267.17,-369.5 -15.399,21.239 252.94,-349.87 40.873,44.648 40.676,44.479 40.676,44.479 0,0 0.34332,-0.21798 64.802,-90.114 222.41,396.4 -0.6529,-1.1982 221.9,395.48 -600.62,0.0678 13.299,0.0578 -580.3,0.0303 z"
         fill="#2a7fff"
         stroke-width="6.7622"
         id="path12"
         inkscape:original-d="m 88.107,698.87 c 267.17,-369.5 -15.399,21.239 252.94,-349.87 40.873,44.648 40.676,44.479 40.676,44.479 0,0 0.34332,-0.21798 64.802,-90.114 222.41,396.4 -0.6529,-1.1982 221.9,395.48 -600.62,0.0678 13.299,0.0578 -580.3,0.0303 z" /></g></g></svg>
