<?xml version="1.0" encoding="UTF-8"?>
<svg version="1.1" viewBox="0 0 140.6 99.995" xml:space="preserve"
  xmlns="http://www.w3.org/2000/svg">
  <g transform="matrix(.91572 0 0 .95557 -21.347 -76.699)">
     <path transform="scale(.26458)" d="m446.52 303.37c-64.459 89.896-64.806 90.115-64.806 90.115s0.20321 0.16617-40.67-44.482c-268.34 371.11 14.227-19.632-252.94 349.87l0.01612 8e-3c122.92 6e-3 79.294-0.0114 120.16-8e-3 155.46-217.3-8.9653 12.496 147.2-205.78 23.788 26.262 23.676 26.165 23.676 26.165s0.1963-0.13273 37.711-53.01c129.43 233.15-0.33959-0.63941 129.14 232.61 41.345-8e-3 -4.2861 7e-3 122.4-8e-3 -222.55-396.68 0.51175 0.92272-221.9-395.48z"/>
  </g>
</svg>