<svg version="1.1" viewBox="0 0 49.086 34.374" xml:space="preserve" xmlns="http://www.w3.org/2000/svg"><defs><clipPath id="clipPath3804"><rect x="74.052" y="-4.1979" width="136.75" height="82.243" ry="9.7715" style="fill:#ffffff;paint-order:stroke markers fill"/></clipPath></defs><g transform="translate(-78.423 -58.218)"><g transform="matrix(.26458 0 0 .26458 65.013 59.203)"><text x="17.3284" y="125.16974" style="fill:#000000;font-family:Montserrat;font-size:18.667px;font-weight:500;paint-order:stroke markers fill;stroke-dasharray:34.4239, 34.4239;stroke-linecap:square;stroke-linejoin:bevel;stroke-miterlimit:0;stroke-width:11.475" xml:space="preserve"><tspan x="17.3284" y="125.16974"/></text><g style="fill:#ffffff;paint-order:stroke markers fill;stroke-dasharray:34.4239, 34.4239;stroke-linecap:square;stroke-linejoin:bevel;stroke-miterlimit:0;stroke-width:11.475" aria-label="image couldn't load"><path d="m51.895 108.33c-.34844 0-.64051.11194-.87695.33594-.224.224-.33594.50384-.33594.83984 0 .32355.11194.59631.33594.82031.23644.224.52851.33594.87695.33594.36089 0 .65295-.11194.87695-.33594.224-.23644.33594-.52142.33594-.85742 0-.32356-.11707-.59118-.35352-.80273-.224-.224-.51093-.33594-.85938-.33594zm99.525.2793v13.852h1.793v-13.852h-1.793zm12.75 0v5.4668c-.33363-.43625-.73094-.78498-1.1953-1.043-.672-.37334-1.424-.56055-2.2578-.56055-.95822 0-1.8171.21165-2.5762.63476-.74668.42312-1.3379 1.0143-1.7734 1.7734-.43555.74667-.6543 1.6248-.6543 2.6328 0 1.008.21875 1.8913.6543 2.6504.43555.7591 1.0268 1.3503 1.7734 1.7734.75911.42312 1.618.63477 2.5762.63477.85866 0 1.6229-.18722 2.2949-.56055.48553-.27873.89631-.65202 1.2324-1.1191v1.5684h1.7168v-13.852h-1.791zm34.57 0v13.852h1.791v-13.852h-1.791zm35.67 0v5.4629c-.33311-.43466-.7302-.78175-1.1934-1.0391-.672-.37334-1.426-.56055-2.2598-.56055-.95822 0-1.8171.21165-2.5762.63476-.74666.42312-1.3379 1.0143-1.7734 1.7734-.43556.74667-.65234 1.6248-.65234 2.6328 0 1.008.21678 1.8913.65234 2.6504.43556.7591 1.0268 1.3503 1.7734 1.7734.75911.42312 1.618.63477 2.5762.63477.85867 0 1.6249-.18722 2.2969-.56055.48667-.27938.89587-.65438 1.2324-1.123v1.5723h1.7168v-13.852h-1.793zm-52.861.7832.11133 5.041h1.3242l.13086-5.041h-1.5664zm4.7031 1.0098v2.1641h-1.6797v1.4746h1.6797v5.4316c0 .99555.27471 1.7618.82226 2.2969.54756.53512 1.3189.80274 2.3144.80274.41067 0 .80245-.05597 1.1758-.16797.38577-.112.7145-.28699.98828-.52344l-.5586-1.2871c-.37333.31112-.84039.4668-1.4004.4668-.49778 0-.88442-.14346-1.1582-.42969-.26133-.28622-.39063-.69731-.39063-1.2324v-5.3574h2.8359v-1.4746h-2.8359v-2.1641h-1.793zm-124.91 2.0703c-.85867 0-1.6107.18207-2.2578.54297-.4771.26607-.86374.60959-1.1582 1.0312v-1.4805h-1.7168v9.8945h1.791v-5.0977c0-.72178.12611-1.3252.375-1.8105.24889-.48534.59692-.85268 1.0449-1.1016s.96394-.37304 1.5488-.37304c.82133 0 1.4492.24318 1.8848.72851.448.48534.67188 1.2078.67188 2.166v5.4883h1.793v-5.0977c0-.72178.11902-1.3252.35547-1.8105.24889-.48534.59692-.85268 1.0449-1.1016.448-.24889.97103-.37304 1.5684-.37304.80889 0 1.4368.24318 1.8848.72851.448.48534.67188 1.2078.67188 2.166v5.4883h1.791v-5.6934c0-.97067-.17304-1.7735-.52148-2.4082-.336-.63467-.81014-1.1088-1.4199-1.4199-.60978-.31112-1.3129-.4668-2.1094-.4668-.99556 0-1.8666.23096-2.6133.6914-.50118.30907-.89793.68724-1.1973 1.1309-.24146-.46054-.56942-.83086-.98633-1.1113-.68445-.4729-1.4995-.71094-2.4453-.71094zm18.201 0c-.784 0-1.538.11193-2.2598.33594-.70933.21155-1.3179.52292-1.8281.93359l.74609 1.3438c.38578-.32355.85797-.57701 1.418-.76367.56-.19912 1.1339-.29883 1.7188-.29883.88356 0 1.543.21165 1.9785.63477.448.41066.67188.99479.67188 1.7539v.35547h-2.8379c-.98311 0-1.7667.12929-2.3516.39063-.57244.26133-.99062.60936-1.252 1.0449-.24889.43556-.37305.92192-.37305 1.457 0 .56.15055 1.0637.44922 1.5117.29867.43555.72198.77845 1.2695 1.0273.56.24889 1.2052.37305 1.9395.37305.90844 0 1.6624-.16791 2.2598-.50391.41904-.24444.74684-.54935.98828-.91015v1.3027h1.6992v-5.9746c0-1.3564-.36734-2.3639-1.1016-3.0234s-1.7783-.99023-3.1348-.99023zm11.666 0c-.95822 0-1.8171.19943-2.5762.59765-.74667.39822-1.343.95791-1.791 1.6797-.43556.70934-.6543 1.5437-.6543 2.502 0 .94577.21874 1.7802.6543 2.502.448.72178 1.0443 1.2866 1.791 1.6973.75911.39822 1.6179.59766 2.5762.59766.84622 0 1.6176-.17304 2.3145-.52148.48733-.25237.90263-.59286 1.25-1.0156v.79102c0 1.12-.27276 1.9544-.82031 2.502-.54756.54756-1.4064.82031-2.5762.82031-.73422 0-1.4374-.11707-2.1094-.35351-.672-.224-1.2388-.53537-1.6992-.9336l-.85742 1.3809c.53511.47289 1.226.83314 2.0723 1.082.85867.26134 1.7419.39258 2.6504.39258 1.68 0 2.9551-.41109 3.8262-1.2324.87111-.82133 1.3066-2.1035 1.3066-3.8457v-8.5488h-1.6992v1.5234c-.36493-.47313-.81248-.83761-1.3438-1.0938-.69689-.34845-1.4682-.52344-2.3145-.52344zm12.824 0c-.94578 0-1.7975.21874-2.5566.6543-.74667.42311-1.3379 1.0143-1.7734 1.7734-.42311.75911-.63477 1.6302-.63477 2.6133 0 .98312.21679 1.8542.65234 2.6133.448.75911 1.0707 1.3554 1.8672 1.791.80888.43555 1.741.6543 2.7988.6543.82133 0 1.5631-.13638 2.2226-.41016.672-.27378 1.2317-.67264 1.6797-1.1953l-.99023-1.1582c-.3609.39822-.7842.69737-1.2695.89648-.47288.19911-1.001.29883-1.5859.29883-.70934 0-1.3372-.14346-1.8848-.42969-.54755-.28622-.97795-.68313-1.2891-1.1934-.22023-.38539-.35818-.80971-.41602-1.2695h8.0332c.01246-.08711.01757-.1817.01757-.28125.01247-.09956.01954-.1851.01954-.25976 0-1.0204-.21166-1.9108-.63477-2.6699-.41067-.77156-.98257-1.3698-1.7168-1.793-.73422-.42311-1.5808-.63476-2.5391-.63476zm16.707 0c-1.008 0-1.9106.21874-2.707.6543-.784.42311-1.3997 1.0143-1.8477 1.7734-.44799.75911-.67187 1.6302-.67187 2.6133 0 .98312.22388 1.8542.67187 2.6133.448.75911 1.0637 1.3554 1.8477 1.791.79645.43555 1.699.6543 2.707.6543.896 0 1.6918-.18013 2.3887-.54102.70934-.37334 1.2568-.90345 1.6426-1.5879l-1.3633-.85742c-.32355.48533-.72047.84558-1.1934 1.082-.46044.224-.95903.33594-1.4941.33594-.64711 0-1.2261-.14346-1.7363-.42969-.51022-.28622-.91422-.69022-1.2129-1.2129-.29866-.52267-.44726-1.1383-.44726-1.8477 0-.70933.1486-1.3198.44726-1.8301.29867-.52267.70267-.92667 1.2129-1.2129s1.0892-.42969 1.7363-.42969c.53511 0 1.0337.11903 1.4941.35547.47289.224.86981.57912 1.1934 1.0644l1.3633-.87891c-.38577-.69688-.93324-1.218-1.6426-1.5664-.69688-.3609-1.4927-.54297-2.3887-.54297zm10.428 0c-.99556 0-1.8788.21874-2.6504.6543-.77156.42311-1.3801 1.0143-1.8281 1.7734s-.67383 1.6302-.67383 2.6133c0 .97068.22583 1.8417.67383 2.6133.448.75911 1.0566 1.3554 1.8281 1.791.77155.43555 1.6548.6543 2.6504.6543.98311 0 1.8613-.21875 2.6328-.6543.78401-.43556 1.3926-1.0319 1.8281-1.791.448-.75912.67383-1.6302.67383-2.6133 0-.99555-.22583-1.8666-.67383-2.6133-.43555-.75911-1.0441-1.3503-1.8281-1.7734-.77155-.43556-1.6497-.6543-2.6328-.6543zm43.475 0c-.896 0-1.6796.18207-2.3516.54297-.50176.26946-.90538.61783-1.2129 1.0469v-1.4961h-1.7168v9.8945h1.791v-5.0977c0-.72178.12416-1.3252.37305-1.8105.26133-.48534.62868-.85268 1.1016-1.1016.47289-.24889 1.0274-.37304 1.6621-.37304.84622 0 1.4985.24318 1.959.72851.47289.48534.70898 1.2078.70898 2.166v5.4883h1.793v-5.6934c0-.97067-.17499-1.7735-.52344-2.4082-.34845-.63467-.83286-1.1088-1.4551-1.4199-.60978-.31112-1.32-.4668-2.1289-.4668zm33.545 0c-.99556 0-1.8788.21874-2.6504.6543-.77156.42311-1.3821 1.0143-1.8301 1.7734s-.67187 1.6302-.67187 2.6133c0 .97068.22387 1.8417.67187 2.6133.448.75911 1.0585 1.3554 1.8301 1.791.77155.43555 1.6548.6543 2.6504.6543.98311 0 1.8593-.21875 2.6309-.6543.784-.43556 1.3945-1.0319 1.8301-1.791.448-.75912.67187-1.6302.67187-2.6133 0-.99555-.22387-1.8666-.67187-2.6133-.43556-.75911-1.0461-1.3503-1.8301-1.7734-.77155-.43556-1.6478-.6543-2.6309-.6543zm11.123 0c-.784 0-1.536.11193-2.2578.33594-.70933.21155-1.3198.52292-1.8301.93359l.74804 1.3438c.38578-.32355.85797-.57701 1.418-.76367.56-.19912 1.1319-.29883 1.7168-.29883.88355 0 1.543.21165 1.9785.63477.448.41066.67188.99479.67188 1.7539v.35547h-2.8359c-.98311 0-1.7686.12929-2.3535.39063-.57245.26133-.98867.60936-1.25 1.0449-.2489.43556-.37305.92192-.37305 1.457 0 .56.1486 1.0637.44726 1.5117.29867.43555.72198.77845 1.2695 1.0273.55999.24889 1.2072.37305 1.9414.37305.90844 0 1.6624-.16791 2.2598-.50391.41904-.24444.74684-.54935.98828-.91015v1.3027h1.6992v-5.9746c0-1.3564-.36735-2.3639-1.1016-3.0234s-1.7803-.99023-3.1367-.99023zm-168.31.09375v9.8945h1.793v-9.8945h-1.793zm87.691 0v5.6934c0 .97066.175 1.7806.52344 2.4277.36089.63467.85752 1.1069 1.4922 1.418.64711.31111 1.394.4668 2.2402.4668.80889 0 1.5365-.18013 2.1836-.54102.48154-.26855.87341-.62075 1.1758-1.0547v1.4844h1.6992v-9.8945h-1.791v5.1152c0 .6969-.1261 1.2932-.375 1.791-.24888.48533-.60205.85976-1.0625 1.1211-.46044.24889-1.0028.37305-1.625.37305-.84622 0-1.5056-.24318-1.9785-.72852-.46045-.48533-.69141-1.2129-.69141-2.1836v-5.4883h-1.791zm-34.658 1.4199c.63467 0 1.1873.14152 1.6602.42773.48533.27378.86489.66043 1.1387 1.1582.2077.3776.33398.79362.37695 1.25h-6.3594c.05236-.45186.17956-.86287.38281-1.2324.27378-.51022.65334-.90201 1.1387-1.1758.48533-.28621 1.0399-.42773 1.6621-.42773zm-12.619.05469c.65956 0 1.2456.13637 1.7559.41015.51022.26134.90714.63577 1.1934 1.1211.29867.48533.44922 1.045.44922 1.6797 0 .63466-.15055 1.1944-.44922 1.6797-.28622.48534-.68314.8649-1.1934 1.1387-.51022.27377-1.0963.41015-1.7559.41015-.65956 0-1.2508-.13638-1.7734-.41015-.51022-.27378-.91422-.65334-1.2129-1.1387-.28622-.48533-.42969-1.045-.42969-1.6797 0-.63467.14347-1.1944.42969-1.6797.29867-.48533.70267-.85976 1.2129-1.1211.52267-.27378 1.1139-.41015 1.7734-.41015zm39.754 0c.63466 0 1.2014.14347 1.6992.42969.51022.28622.90908.69022 1.1953 1.2129.28622.51022.42969 1.1207.42969 1.8301 0 .6969-.14347 1.3126-.42969 1.8477-.28623.52267-.68509.92667-1.1953 1.2129-.49778.28623-1.0646.42969-1.6992.42969-.63467 0-1.1995-.14346-1.6973-.42969-.49778-.28622-.89664-.69022-1.1953-1.2129-.29867-.53511-.44727-1.1508-.44727-1.8477 0-.70933.1486-1.3198.44727-1.8301.29867-.52267.69753-.92667 1.1953-1.2129s1.0626-.42969 1.6973-.42969zm29.699 0c.62222 0 1.1819.14347 1.6797.42969.51022.28622.90909.69022 1.1953 1.2129.29866.51022.44726 1.1207.44726 1.8301 0 .6969-.1486 1.3126-.44726 1.8477-.28623.52267-.6851.92667-1.1953 1.2129-.49778.28623-1.0575.42969-1.6797.42969-.63467 0-1.2014-.14346-1.6992-.42969-.49778-.28622-.8947-.69022-1.1934-1.2129-.29867-.53511-.44922-1.1508-.44922-1.8477 0-.70933.15055-1.3198.44922-1.8301.29866-.52267.69558-.92667 1.1934-1.2129s1.0646-.42969 1.6992-.42969zm47.32 0c.63467 0 1.2014.14347 1.6992.42969.51022.28622.90713.69022 1.1934 1.2129.28622.51022.42968 1.1207.42968 1.8301 0 .6969-.14346 1.3126-.42968 1.8477-.28623.52267-.68314.92667-1.1934 1.2129-.49778.28623-1.0646.42969-1.6992.42969s-1.2014-.14346-1.6992-.42969c-.49778-.28622-.89665-.69022-1.1953-1.2129-.29867-.53511-.44727-1.1508-.44727-1.8477 0-.70933.1486-1.3198.44727-1.8301.29866-.52267.69753-.92667 1.1953-1.2129s1.0646-.42969 1.6992-.42969zm22.922 0c.62223 0 1.1819.14347 1.6797.42969.51022.28622.90714.69022 1.1934 1.2129.29867.51022.44922 1.1207.44922 1.8301 0 .6969-.15055 1.3126-.44922 1.8477-.28622.52267-.68314.92667-1.1934 1.2129-.49778.28623-1.0575.42969-1.6797.42969-.63466 0-1.2014-.14346-1.6992-.42969-.49778-.28622-.89665-.69022-1.1953-1.2129-.29866-.53511-.44726-1.1508-.44726-1.8477 0-.70933.1486-1.3198.44726-1.8301.29867-.52267.69754-.92667 1.1953-1.2129s1.0646-.42969 1.6992-.42969zm-151.88 4.0137h2.7637v1.3809c-.224.57245-.59134 1.008-1.1016 1.3066-.49778.29867-1.0839.44922-1.7559.44922-.68444 0-1.2197-.14347-1.6055-.42969-.38578-.29867-.57812-.69045-.57812-1.1758 0-.42311.15569-.78532.4668-1.084.31111-.29867.91455-.44727 1.8105-.44727zm139.77 0h2.7617v1.3809c-.224.57245-.58938 1.008-1.0996 1.3066-.49778.29867-1.0839.44922-1.7559.44922-.68445 0-1.2197-.14347-1.6055-.42969-.38578-.29867-.57812-.69045-.57812-1.1758 0-.42311.15568-.78532.46679-1.084.31111-.29867.91454-.44727 1.8106-.44727z"/></g><g transform="translate(1.0143 .47816)" clip-path="url(#clipPath3804)"><path d="m72.778-6.6916v87.23h83.625l-26.428-42.789 37.223-14.373-13.486-30.068zm116.47 0 5.1055 42.318-39.621 11.832 7.5059 33.08h49.836v-87.23z" style="fill:#000000;paint-order:stroke markers fill"/><g transform="matrix(1.1594 0 0 1.3438 216.18 -42.368)"><g transform="matrix(.91572 0 0 .95557 21.929 -65.728)" clip-path="none"><path d="m-82.555 107.79-11.317 12.897-7.1023-6.3663-44.172 50.074-1.4388.00068 22.62-.00068 25.708-28.321 4.1332 3.7448 6.587-7.587 5.7206 6.623 18.387-4.5256z" style="fill:#ffffff;stroke-width:.15809"/></g></g></g></g></g></svg>
